<?xml version="1.0" encoding="utf-8"?>
<!-- Generator: Adobe Illustrator 23.0.4, SVG Export Plug-In . SVG Version: 6.00 Build 0)  -->
<svg version="1.1" xmlns="http://www.w3.org/2000/svg" xmlns:xlink="http://www.w3.org/1999/xlink" x="0px" y="0px"
	 viewBox="0 0 293 54" style="enable-background:new 0 0 293 54;" xml:space="preserve">
<style type="text/css">
	.st0{fill-rule:evenodd;clip-rule:evenodd;fill:#3EB134;}
	.st1{fill-rule:evenodd;clip-rule:evenodd;fill:#57575A;}
	.st2{filter:url(#Adobe_OpacityMaskFilter);}
	.st3{fill-rule:evenodd;clip-rule:evenodd;fill:#FFFFFF;}
	.st4{mask:url(#b_1_);fill-rule:evenodd;clip-rule:evenodd;fill:#57575A;}
	.st5{fill:#3EB134;}
	.st6{display:none;}
	.st7{display:inline;fill:#3EB134;}
	.st8{font-family:'Saira-Medium';}
	.st9{font-size:14px;}
	.st10{letter-spacing:2;}
</style>
<g id="Layer_1">
	<g>
		<path class="st0" d="M5.9,0C3.1,0,0,3.4,0,6.5V32h8.1V7.9c0-2.4,2.2-5,5.3-5h16.7c1.4,0,1.4-2.8,0-2.8H5.9z M31.2,25.3
			c0-3.3-2.6-5.9-5.9-5.9c-3.3,0-5.9,2.6-5.9,5.9c0,3.3,2.6,5.9,5.9,5.9C28.5,31.2,31.2,28.5,31.2,25.3
			C31.2,25.3,31.2,25.3,31.2,25.3z"/>
		<path class="st0" d="M13.9,10.9c-1.8,0-3.8,2.4-3.8,3.8l0,17.3h8V16.6c0-1.4,1-2.8,2.1-2.8h9.9c1.5,0,1.5-2.8,0-2.8H13.9z"/>
		<path class="st1" d="M38.7,10.9h15.2v5.2h-9.1v2.5h7.8v4.8h-7.8v7.7h-6L38.7,10.9z M74.1,23.6c0,5.7-3,8.4-9.2,8.4
			c-6.2,0-9.3-2.7-9.3-8.4V10.9h6.3v11.2c0,2.1,0,4.7,3,4.7c3,0,3-2.6,3-4.7V10.9h6.3L74.1,23.6L74.1,23.6L74.1,23.6z M91.8,24.1
			c0,5.7-2.5,7.9-7.7,7.9c-5.2,0-7.5-2.9-7.5-7.4v-1.7h5.7V24c0,1.6,0,3.1,1.7,3.1c1.6,0,1.5-2,1.5-2.9V10.9h6.3L91.8,24.1
			L91.8,24.1z"/>
		<defs>
			<filter id="Adobe_OpacityMaskFilter" filterUnits="userSpaceOnUse" x="95.1" y="10.9" width="197.9" height="21.1">
				<feColorMatrix  type="matrix" values="1 0 0 0 0  0 1 0 0 0  0 0 1 0 0  0 0 0 1 0"/>
			</filter>
		</defs>
		<mask maskUnits="userSpaceOnUse" x="95.1" y="10.9" width="197.9" height="21.1" id="b_1_">
			<g class="st2">
				<path id="a_1_" class="st3" d="M0,32h293V0H0V32z"/>
			</g>
		</mask>
		<path class="st4" d="M95.1,31.2h5.9V10.9h-5.9L95.1,31.2z M122.9,27c1.6,0,4-1,4-5.5c0-4.5-2.4-5.5-4-5.5s-4,1-4,5.5
			C119,25.9,121.4,27,122.9,27 M122.9,10.9c6.1,0,10.1,4.4,10.1,10.5S129,32,122.9,32s-10.1-4.4-10.1-10.5
			C112.8,15.3,116.9,10.9,122.9,10.9 M135.6,31.2h5.9V10.9h-5.9V31.2z M144.8,10.9h6.2v15h8.9v5.2h-15.2V10.9z M171.8,10.9h16.5v5.2
			h-10.4v2.5h9.4v4.8h-9.4V26h10.7v5.2h-16.8L171.8,10.9z M210.5,23.6c0,5.7-3,8.4-9.2,8.4c-6.2,0-9.3-2.7-9.3-8.4V10.9h6.3v11.2
			c0,2.1,0,4.7,3,4.7c3,0,3-2.6,3-4.7V10.9h6.3L210.5,23.6L210.5,23.6L210.5,23.6z M219.1,19.8h3.2c1.1,0,2.7-0.2,2.7-2
			c0-1.3-0.7-2-3-2h-2.8V19.8z M213,10.9h11.5c3.4,0,6.4,2,6.4,5.8c0,2.1-0.9,4.3-2.9,5.1c1.6,0.6,2.7,2.5,2.9,5
			c0.1,1,0.1,3.4,0.7,4.3h-6c-0.3-1-0.4-2.1-0.5-3.1c-0.2-1.9-0.3-3.9-2.7-3.9h-3.2v7h-6V10.9L213,10.9z M243.3,27c1.6,0,4-1,4-5.5
			c0-4.5-2.4-5.5-4-5.5c-1.6,0-4,1-4,5.5C239.4,25.9,241.8,27,243.3,27 M243.3,10.9c6.1,0,10.1,4.4,10.1,10.5s-4,10.5-10.1,10.5
			c-6.1,0-10.1-4.4-10.1-10.5C233.2,15.3,237.3,10.9,243.3,10.9 M262.1,20.2h2.4c1.6,0,3.3-0.1,3.3-2.2c0-1.8-1.4-2-2.9-2h-2.8
			L262.1,20.2L262.1,20.2z M256,10.9h10.3c5.4,0,7.4,4,7.4,6.9c0,4.9-3.3,7.2-7.9,7.2h-3.6v6.1H256V10.9L256,10.9z M276.2,10.9h16.5
			v5.2h-10.4v2.5h9.4v4.8h-9.4V26H293v5.2h-16.8V10.9z"/>
	</g>
	<g>
		<g>
			<path class="st5" d="M7.4,53l-0.9-2.3H2.4L1.6,53H0l3.5-9.6h2.1L9,53H7.4z M4.5,45L4.5,45l-1.6,4.3H6L4.5,45z"/>
			<path class="st5" d="M13.3,43.4h3.2c1.4,0,2.3,0.1,2.9,0.4c0.6,0.3,0.9,0.7,1.1,1.3c0.1,0.6,0.2,1.7,0.2,3.1
				c0,1.5-0.1,2.5-0.2,3.2c-0.1,0.6-0.5,1-1.1,1.3c-0.6,0.2-1.5,0.4-2.9,0.4h-3.2V43.4z M16.3,51.6c1,0,1.6-0.1,2-0.2
				c0.3-0.1,0.5-0.4,0.6-0.8c0.1-0.4,0.1-1.2,0.1-2.5c0-1.2-0.1-2-0.2-2.4c-0.1-0.4-0.3-0.7-0.7-0.8c-0.3-0.1-1-0.2-2-0.2h-1.4v6.8
				H16.3z"/>
			<path class="st5" d="M25.7,43.4h3.2c1.4,0,2.3,0.1,2.9,0.4c0.6,0.3,0.9,0.7,1.1,1.3c0.1,0.6,0.2,1.7,0.2,3.1
				c0,1.5-0.1,2.5-0.2,3.2c-0.1,0.6-0.5,1-1.1,1.3c-0.6,0.2-1.5,0.4-2.9,0.4h-3.2V43.4z M28.7,51.6c1,0,1.6-0.1,2-0.2
				c0.3-0.1,0.5-0.4,0.6-0.8c0.1-0.4,0.1-1.2,0.1-2.5c0-1.2-0.1-2-0.2-2.4c-0.1-0.4-0.3-0.7-0.7-0.8c-0.3-0.1-1-0.2-2-0.2h-1.4v6.8
				H28.7z"/>
			<path class="st5" d="M38,53v-9.6h1.6V53H38z"/>
			<path class="st5" d="M51,53l-4.5-6.7h-0.1V53h-1.5v-9.6h1.6l4.4,6.5H51v-6.5h1.5V53H51z"/>
			<path class="st5" d="M61.4,49v-1.4h3.4v5.2c-0.5,0.1-1,0.2-1.6,0.2c-0.6,0.1-1.1,0.1-1.5,0.1c-1.2,0-2.1-0.1-2.6-0.4
				c-0.6-0.3-1-0.7-1.2-1.4c-0.2-0.7-0.3-1.7-0.3-3.1s0.1-2.4,0.3-3.1c0.2-0.7,0.6-1.2,1.2-1.4s1.5-0.4,2.6-0.4c0.5,0,1,0,1.6,0.1
				c0.6,0.1,1.1,0.1,1.5,0.2v1.3c-1.1-0.1-1.9-0.2-2.4-0.2c-1.1,0-1.8,0.1-2.2,0.2c-0.4,0.1-0.7,0.4-0.8,0.9
				c-0.2,0.5-0.2,1.3-0.2,2.5c0,1.1,0.1,1.9,0.2,2.3c0.1,0.5,0.4,0.8,0.7,1c0.4,0.2,0.9,0.3,1.8,0.3c0.7,0,1.2,0,1.6-0.1V49H61.4z"
				/>
		</g>
		<g>
			<path class="st5" d="M7.4,53l-0.9-2.3H2.4L1.6,53H0l3.5-9.6h2.1L9,53H7.4z M4.5,45L4.5,45l-1.6,4.3H6L4.5,45z"/>
			<path class="st5" d="M13.3,43.4h3.2c1.4,0,2.3,0.1,2.9,0.4c0.6,0.3,0.9,0.7,1.1,1.3c0.1,0.6,0.2,1.7,0.2,3.1
				c0,1.5-0.1,2.5-0.2,3.2c-0.1,0.6-0.5,1-1.1,1.3c-0.6,0.2-1.5,0.4-2.9,0.4h-3.2V43.4z M16.3,51.6c1,0,1.6-0.1,2-0.2
				c0.3-0.1,0.5-0.4,0.6-0.8c0.1-0.4,0.1-1.2,0.1-2.5c0-1.2-0.1-2-0.2-2.4c-0.1-0.4-0.3-0.7-0.7-0.8c-0.3-0.1-1-0.2-2-0.2h-1.4v6.8
				H16.3z"/>
			<path class="st5" d="M25.7,43.4h3.2c1.4,0,2.3,0.1,2.9,0.4c0.6,0.3,0.9,0.7,1.1,1.3c0.1,0.6,0.2,1.7,0.2,3.1
				c0,1.5-0.1,2.5-0.2,3.2c-0.1,0.6-0.5,1-1.1,1.3c-0.6,0.2-1.5,0.4-2.9,0.4h-3.2V43.4z M28.7,51.6c1,0,1.6-0.1,2-0.2
				c0.3-0.1,0.5-0.4,0.6-0.8c0.1-0.4,0.1-1.2,0.1-2.5c0-1.2-0.1-2-0.2-2.4c-0.1-0.4-0.3-0.7-0.7-0.8c-0.3-0.1-1-0.2-2-0.2h-1.4v6.8
				H28.7z"/>
			<path class="st5" d="M38,53v-9.6h1.6V53H38z"/>
			<path class="st5" d="M51,53l-4.5-6.7h-0.1V53h-1.5v-9.6h1.6l4.4,6.5H51v-6.5h1.5V53H51z"/>
			<path class="st5" d="M61.4,49v-1.4h3.4v5.2c-0.5,0.1-1,0.2-1.6,0.2c-0.6,0.1-1.1,0.1-1.5,0.1c-1.2,0-2.1-0.1-2.6-0.4
				c-0.6-0.3-1-0.7-1.2-1.4c-0.2-0.7-0.3-1.7-0.3-3.1s0.1-2.4,0.3-3.1c0.2-0.7,0.6-1.2,1.2-1.4s1.5-0.4,2.6-0.4c0.5,0,1,0,1.6,0.1
				c0.6,0.1,1.1,0.1,1.5,0.2v1.3c-1.1-0.1-1.9-0.2-2.4-0.2c-1.1,0-1.8,0.1-2.2,0.2c-0.4,0.1-0.7,0.4-0.8,0.9
				c-0.2,0.5-0.2,1.3-0.2,2.5c0,1.1,0.1,1.9,0.2,2.3c0.1,0.5,0.4,0.8,0.7,1c0.4,0.2,0.9,0.3,1.8,0.3c0.7,0,1.2,0,1.6-0.1V49H61.4z"
				/>
		</g>
	</g>
	<g>
		<g>
			<path class="st5" d="M78.5,53l-3.3-9.6h1.6l2.7,7.8h0.1l2.7-7.8h1.6L80.6,53H78.5z"/>
			<path class="st5" d="M94,53l-0.9-2.3H89L88.2,53h-1.6l3.5-9.6h2.1l3.5,9.6H94z M91.1,45L91.1,45l-1.6,4.3h3.1L91.1,45z"/>
			<path class="st5" d="M99.9,53v-9.6h1.6v8.2h4.3V53H99.9z"/>
			<path class="st5" d="M117.6,43.4v5.4c0,1.3-0.1,2.2-0.3,2.8c-0.2,0.6-0.5,1-1,1.2c-0.5,0.2-1.3,0.4-2.5,0.4s-2-0.1-2.5-0.4
				c-0.5-0.2-0.9-0.6-1-1.2c-0.2-0.6-0.3-1.5-0.3-2.8v-5.4h1.6v5.9c0,0.8,0,1.3,0.1,1.6c0.1,0.3,0.3,0.5,0.6,0.6
				c0.3,0.1,0.8,0.2,1.5,0.2c0.7,0,1.2-0.1,1.5-0.2c0.3-0.1,0.5-0.3,0.5-0.6s0.1-0.9,0.1-1.6v-5.9H117.6z"/>
			<path class="st5" d="M122.8,53v-9.6h6.4v1.4h-4.8v2.6h4.2v1.4h-4.2v2.7h4.8V53H122.8z"/>
		</g>
		<g>
			<path class="st5" d="M78.5,53l-3.3-9.6h1.6l2.7,7.8h0.1l2.7-7.8h1.6L80.6,53H78.5z"/>
			<path class="st5" d="M94,53l-0.9-2.3H89L88.2,53h-1.6l3.5-9.6h2.1l3.5,9.6H94z M91.1,45L91.1,45l-1.6,4.3h3.1L91.1,45z"/>
			<path class="st5" d="M99.9,53v-9.6h1.6v8.2h4.3V53H99.9z"/>
			<path class="st5" d="M117.6,43.4v5.4c0,1.3-0.1,2.2-0.3,2.8c-0.2,0.6-0.5,1-1,1.2c-0.5,0.2-1.3,0.4-2.5,0.4s-2-0.1-2.5-0.4
				c-0.5-0.2-0.9-0.6-1-1.2c-0.2-0.6-0.3-1.5-0.3-2.8v-5.4h1.6v5.9c0,0.8,0,1.3,0.1,1.6c0.1,0.3,0.3,0.5,0.6,0.6
				c0.3,0.1,0.8,0.2,1.5,0.2c0.7,0,1.2-0.1,1.5-0.2c0.3-0.1,0.5-0.3,0.5-0.6s0.1-0.9,0.1-1.6v-5.9H117.6z"/>
			<path class="st5" d="M122.8,53v-9.6h6.4v1.4h-4.8v2.6h4.2v1.4h-4.2v2.7h4.8V53H122.8z"/>
		</g>
	</g>
	<g>
		<g>
			<path class="st5" d="M142.5,53v-8.2h-2.9v-1.5h7.4v1.5h-2.9V53H142.5z"/>
			<path class="st5" d="M152.4,52.7c-0.5-0.3-0.9-0.7-1-1.4s-0.2-1.7-0.2-3.2c0-1.5,0.1-2.5,0.2-3.2s0.5-1.1,1-1.4
				c0.5-0.3,1.5-0.4,2.8-0.4s2.2,0.1,2.8,0.4c0.6,0.3,0.9,0.7,1,1.4c0.1,0.6,0.2,1.7,0.2,3.2c0,1.5-0.1,2.5-0.2,3.2
				c-0.1,0.6-0.5,1.1-1,1.4s-1.5,0.4-2.8,0.4S152.9,53,152.4,52.7z M156.8,51.5c0.3-0.1,0.5-0.4,0.6-0.8c0.1-0.4,0.1-1.3,0.1-2.5
				c0-1.2,0-2.1-0.1-2.5c-0.1-0.4-0.3-0.7-0.6-0.8c-0.3-0.1-0.9-0.2-1.7-0.2c-0.9,0-1.4,0.1-1.7,0.2c-0.3,0.1-0.5,0.4-0.6,0.8
				c-0.1,0.4-0.1,1.3-0.1,2.5c0,1.2,0,2.1,0.1,2.5c0.1,0.4,0.3,0.7,0.6,0.8c0.3,0.1,0.9,0.2,1.7,0.2C156,51.7,156.5,51.6,156.8,51.5
				z"/>
		</g>
		<g>
			<path class="st5" d="M142.5,53v-8.2h-2.9v-1.5h7.4v1.5h-2.9V53H142.5z"/>
			<path class="st5" d="M152.4,52.7c-0.5-0.3-0.9-0.7-1-1.4s-0.2-1.7-0.2-3.2c0-1.5,0.1-2.5,0.2-3.2s0.5-1.1,1-1.4
				c0.5-0.3,1.5-0.4,2.8-0.4s2.2,0.1,2.8,0.4c0.6,0.3,0.9,0.7,1,1.4c0.1,0.6,0.2,1.7,0.2,3.2c0,1.5-0.1,2.5-0.2,3.2
				c-0.1,0.6-0.5,1.1-1,1.4s-1.5,0.4-2.8,0.4S152.9,53,152.4,52.7z M156.8,51.5c0.3-0.1,0.5-0.4,0.6-0.8c0.1-0.4,0.1-1.3,0.1-2.5
				c0-1.2,0-2.1-0.1-2.5c-0.1-0.4-0.3-0.7-0.6-0.8c-0.3-0.1-0.9-0.2-1.7-0.2c-0.9,0-1.4,0.1-1.7,0.2c-0.3,0.1-0.5,0.4-0.6,0.8
				c-0.1,0.4-0.1,1.3-0.1,2.5c0,1.2,0,2.1,0.1,2.5c0.1,0.4,0.3,0.7,0.6,0.8c0.3,0.1,0.9,0.2,1.7,0.2C156,51.7,156.5,51.6,156.8,51.5
				z"/>
		</g>
	</g>
	<g>
		<g>
			<path class="st5" d="M169.5,53v-9.6h6.4v1.4h-4.8v2.6h4.2v1.4h-4.2v2.7h4.8V53H169.5z"/>
			<path class="st5" d="M183.1,53l-3.3-9.6h1.6l2.7,7.8h0.1l2.7-7.8h1.6l-3.3,9.6H183.1z"/>
			<path class="st5" d="M192.8,53v-9.6h6.4v1.4h-4.8v2.6h4.2v1.4h-4.2v2.7h4.8V53H192.8z"/>
			<path class="st5" d="M209.8,53l-1.4-3.6h0h-2.7V53H204v-9.6h4.5c0.8,0,1.4,0.1,1.8,0.4c0.4,0.2,0.7,0.6,0.8,1s0.2,1,0.2,1.6
				c0,0.6-0.1,1.2-0.3,1.7s-0.6,0.9-1.1,1.1l1.6,3.8H209.8z M209.1,47.8c0.3-0.1,0.4-0.3,0.5-0.5c0.1-0.2,0.1-0.5,0.1-1
				c0-0.4,0-0.8-0.1-1c-0.1-0.2-0.2-0.4-0.5-0.4c-0.3-0.1-0.7-0.1-1.2-0.1h-2.3v3.2h2.3C208.4,47.9,208.8,47.9,209.1,47.8z"/>
			<path class="st5" d="M218.2,53v-3.5l-3.4-6.1h1.7l2.5,4.5h0.1l2.5-4.5h1.6l-3.4,6.1V53H218.2z"/>
		</g>
		<g>
			<path class="st5" d="M169.5,53v-9.6h6.4v1.4h-4.8v2.6h4.2v1.4h-4.2v2.7h4.8V53H169.5z"/>
			<path class="st5" d="M183.1,53l-3.3-9.6h1.6l2.7,7.8h0.1l2.7-7.8h1.6l-3.3,9.6H183.1z"/>
			<path class="st5" d="M192.8,53v-9.6h6.4v1.4h-4.8v2.6h4.2v1.4h-4.2v2.7h4.8V53H192.8z"/>
			<path class="st5" d="M209.8,53l-1.4-3.6h0h-2.7V53H204v-9.6h4.5c0.8,0,1.4,0.1,1.8,0.4c0.4,0.2,0.7,0.6,0.8,1s0.2,1,0.2,1.6
				c0,0.6-0.1,1.2-0.3,1.7s-0.6,0.9-1.1,1.1l1.6,3.8H209.8z M209.1,47.8c0.3-0.1,0.4-0.3,0.5-0.5c0.1-0.2,0.1-0.5,0.1-1
				c0-0.4,0-0.8-0.1-1c-0.1-0.2-0.2-0.4-0.5-0.4c-0.3-0.1-0.7-0.1-1.2-0.1h-2.3v3.2h2.3C208.4,47.9,208.8,47.9,209.1,47.8z"/>
			<path class="st5" d="M218.2,53v-3.5l-3.4-6.1h1.7l2.5,4.5h0.1l2.5-4.5h1.6l-3.4,6.1V53H218.2z"/>
		</g>
	</g>
	<g>
		<g>
			<path class="st5" d="M239.4,53l-1.4-3.6h0h-2.7V53h-1.6v-9.6h4.5c0.8,0,1.4,0.1,1.8,0.4c0.4,0.2,0.7,0.6,0.8,1s0.2,1,0.2,1.6
				c0,0.6-0.1,1.2-0.3,1.7s-0.6,0.9-1.1,1.1l1.6,3.8H239.4z M238.7,47.8c0.3-0.1,0.4-0.3,0.5-0.5c0.1-0.2,0.1-0.5,0.1-1
				c0-0.4,0-0.8-0.1-1c-0.1-0.2-0.2-0.4-0.5-0.4c-0.3-0.1-0.7-0.1-1.2-0.1h-2.3v3.2h2.3C238,47.9,238.4,47.9,238.7,47.8z"/>
			<path class="st5" d="M245.9,53v-9.6h6.4v1.4h-4.8v2.6h4.2v1.4h-4.2v2.7h4.8V53H245.9z"/>
			<path class="st5" d="M262,53.1c-0.4,0-0.9,0.1-1.2,0.1c-1.2,0-2-0.1-2.6-0.4s-0.9-0.7-1.1-1.4s-0.3-1.7-0.3-3.1
				c0-1.4,0.1-2.4,0.3-3.1s0.6-1.1,1.1-1.4s1.4-0.4,2.6-0.4c0.4,0,0.8,0,1.2,0.1s0.8,0.1,1.1,0.2v1.3c-0.7-0.1-1.4-0.1-1.9-0.1
				c-0.9,0-1.5,0.1-1.9,0.2c-0.4,0.1-0.6,0.4-0.7,0.9c-0.1,0.4-0.2,1.2-0.2,2.4c0,1.2,0.1,2,0.2,2.4s0.3,0.7,0.7,0.9
				c0.4,0.1,1,0.2,1.9,0.2c0.7,0,1.4,0,2-0.1v1.4C262.8,53,262.4,53,262,53.1z"/>
			<path class="st5" d="M267.9,53v-9.6h1.6V53H267.9z"/>
			<path class="st5" d="M274.7,43.4h4.3c0.8,0,1.4,0.1,1.8,0.4c0.4,0.3,0.7,0.6,0.8,1c0.1,0.4,0.2,1,0.2,1.7c0,0.7-0.1,1.2-0.2,1.7
				c-0.1,0.4-0.4,0.8-0.8,1.1s-1,0.4-1.8,0.4h-2.7V53h-1.6V43.4z M278.4,48.2c0.6,0,1,0,1.3-0.1c0.3-0.1,0.4-0.3,0.5-0.5
				c0.1-0.2,0.1-0.6,0.1-1.1c0-0.5,0-0.9-0.1-1.1c-0.1-0.2-0.2-0.4-0.5-0.5c-0.3-0.1-0.7-0.1-1.3-0.1h-2.1v3.4H278.4z"/>
			<path class="st5" d="M286.6,53v-9.6h6.4v1.4h-4.8v2.6h4.2v1.4h-4.2v2.7h4.8V53H286.6z"/>
		</g>
		<g>
			<path class="st5" d="M239.4,53l-1.4-3.6h0h-2.7V53h-1.6v-9.6h4.5c0.8,0,1.4,0.1,1.8,0.4c0.4,0.2,0.7,0.6,0.8,1s0.2,1,0.2,1.6
				c0,0.6-0.1,1.2-0.3,1.7s-0.6,0.9-1.1,1.1l1.6,3.8H239.4z M238.7,47.8c0.3-0.1,0.4-0.3,0.5-0.5c0.1-0.2,0.1-0.5,0.1-1
				c0-0.4,0-0.8-0.1-1c-0.1-0.2-0.2-0.4-0.5-0.4c-0.3-0.1-0.7-0.1-1.2-0.1h-2.3v3.2h2.3C238,47.9,238.4,47.9,238.7,47.8z"/>
			<path class="st5" d="M245.9,53v-9.6h6.4v1.4h-4.8v2.6h4.2v1.4h-4.2v2.7h4.8V53H245.9z"/>
			<path class="st5" d="M262,53.1c-0.4,0-0.9,0.1-1.2,0.1c-1.2,0-2-0.1-2.6-0.4s-0.9-0.7-1.1-1.4s-0.3-1.7-0.3-3.1
				c0-1.4,0.1-2.4,0.3-3.1s0.6-1.1,1.1-1.4s1.4-0.4,2.6-0.4c0.4,0,0.8,0,1.2,0.1s0.8,0.1,1.1,0.2v1.3c-0.7-0.1-1.4-0.1-1.9-0.1
				c-0.9,0-1.5,0.1-1.9,0.2c-0.4,0.1-0.6,0.4-0.7,0.9c-0.1,0.4-0.2,1.2-0.2,2.4c0,1.2,0.1,2,0.2,2.4s0.3,0.7,0.7,0.9
				c0.4,0.1,1,0.2,1.9,0.2c0.7,0,1.4,0,2-0.1v1.4C262.8,53,262.4,53,262,53.1z"/>
			<path class="st5" d="M267.9,53v-9.6h1.6V53H267.9z"/>
			<path class="st5" d="M274.7,43.4h4.3c0.8,0,1.4,0.1,1.8,0.4c0.4,0.3,0.7,0.6,0.8,1c0.1,0.4,0.2,1,0.2,1.7c0,0.7-0.1,1.2-0.2,1.7
				c-0.1,0.4-0.4,0.8-0.8,1.1s-1,0.4-1.8,0.4h-2.7V53h-1.6V43.4z M278.4,48.2c0.6,0,1,0,1.3-0.1c0.3-0.1,0.4-0.3,0.5-0.5
				c0.1-0.2,0.1-0.6,0.1-1.1c0-0.5,0-0.9-0.1-1.1c-0.1-0.2-0.2-0.4-0.5-0.5c-0.3-0.1-0.7-0.1-1.3-0.1h-2.1v3.4H278.4z"/>
			<path class="st5" d="M286.6,53v-9.6h6.4v1.4h-4.8v2.6h4.2v1.4h-4.2v2.7h4.8V53H286.6z"/>
		</g>
	</g>
</g>
<g id="Text" class="st6">
	<text transform="matrix(1 0 0 1 -0.298 52.9981)" class="st7 st8 st9 st10">ADDING VALUE TO EVERY RECIPE</text>
</g>
</svg>
